{
	"asset":{
		"generator":"Khronos glTF Blender I/O v4.0.44",
		"version":"2.0"
	},
	"scene":0,
	"scenes":[
		{
			"name":"Scene",
			"nodes":[
				0
			]
		}
	],
	"nodes":[
		{
			"mesh":0,
			"name":"Curve.005",
			"scale":[
				25,
				25,
				25
			],
			"translation":[
				0.8651707172393799,
				0.03333328664302826,
				-1.6838557720184326
			]
		}
	],
	"materials":[
		{
			"doubleSided":true,
			"name":"A and Spade Extrusion",
			"pbrMetallicRoughness":{
				"baseColorFactor":[
					0.2195628136396408,
					0.08021603524684906,
					0.822726309299469,
					1
				],
				"metallicFactor":0.8999999761581421,
				"roughnessFactor":0.30000001192092896
			}
		},
		{
			"doubleSided":true,
			"name":"Card Front",
			"pbrMetallicRoughness":{
				"baseColorTexture":{
					"index":0
				},
				"metallicFactor":0.8999999761581421,
				"roughnessFactor":0.30000001192092896
			}
		},
		{
			"doubleSided":true,
			"name":"Card Back",
			"pbrMetallicRoughness":{
				"baseColorTexture":{
					"index":1
				},
				"metallicFactor":0.8999999761581421,
				"roughnessFactor":0.30000001192092896
			}
		}
	],
	"meshes":[
		{
			"name":"Mesh",
			"primitives":[
				{
					"attributes":{
						"POSITION":0,
						"NORMAL":1,
						"TEXCOORD_0":2
					},
					"indices":3,
					"material":0
				},
				{
					"attributes":{
						"POSITION":4,
						"NORMAL":5,
						"TEXCOORD_0":6
					},
					"indices":7,
					"material":1
				},
				{
					"attributes":{
						"POSITION":8,
						"NORMAL":9,
						"TEXCOORD_0":10
					},
					"indices":11,
					"material":2
				}
			]
		}
	],
	"textures":[
		{
			"sampler":0,
			"source":0
		},
		{
			"sampler":0,
			"source":1
		}
	],
	"images":[
		{
			"mimeType":"image/png",
			"name":"Front FINAL",
			"uri":"Front%20FINAL.png"
		},
		{
			"mimeType":"image/png",
			"name":"Back FINAL",
			"uri":"Back%20FINAL.png"
		}
	],
	"accessors":[
		{
			"bufferView":0,
			"componentType":5126,
			"count":2710,
			"max":[
				0.034495286643505096,
				0.000666668638586998,
				0.061964813619852066
			],
			"min":[
				-0.029200835153460503,
				-0.0003333314380142838,
				-0.05423213168978691
			],
			"type":"VEC3"
		},
		{
			"bufferView":1,
			"componentType":5126,
			"count":2710,
			"type":"VEC3"
		},
		{
			"bufferView":2,
			"componentType":5126,
			"count":2710,
			"type":"VEC2"
		},
		{
			"bufferView":3,
			"componentType":5123,
			"count":7464,
			"type":"SCALAR"
		},
		{
			"bufferView":4,
			"componentType":5126,
			"count":271,
			"max":[
				0.03964735195040703,
				-0.00033333146711811423,
				0.06713130325078964
			],
			"min":[
				-0.034352827817201614,
				-0.0007209055474959314,
				-0.05936760455369949
			],
			"type":"VEC3"
		},
		{
			"bufferView":5,
			"componentType":5126,
			"count":271,
			"type":"VEC3"
		},
		{
			"bufferView":6,
			"componentType":5126,
			"count":271,
			"type":"VEC2"
		},
		{
			"bufferView":7,
			"componentType":5123,
			"count":1086,
			"type":"SCALAR"
		},
		{
			"bufferView":8,
			"componentType":5126,
			"count":489,
			"max":[
				0.03964735195040703,
				-0.0007209055474959314,
				0.06713130325078964
			],
			"min":[
				-0.034352827817201614,
				-0.002333331387490034,
				-0.05936760455369949
			],
			"type":"VEC3"
		},
		{
			"bufferView":9,
			"componentType":5126,
			"count":489,
			"type":"VEC3"
		},
		{
			"bufferView":10,
			"componentType":5126,
			"count":489,
			"type":"VEC2"
		},
		{
			"bufferView":11,
			"componentType":5123,
			"count":1860,
			"type":"SCALAR"
		}
	],
	"bufferViews":[
		{
			"buffer":0,
			"byteLength":32520,
			"byteOffset":0,
			"target":34962
		},
		{
			"buffer":0,
			"byteLength":32520,
			"byteOffset":32520,
			"target":34962
		},
		{
			"buffer":0,
			"byteLength":21680,
			"byteOffset":65040,
			"target":34962
		},
		{
			"buffer":0,
			"byteLength":14928,
			"byteOffset":86720,
			"target":34963
		},
		{
			"buffer":0,
			"byteLength":3252,
			"byteOffset":101648,
			"target":34962
		},
		{
			"buffer":0,
			"byteLength":3252,
			"byteOffset":104900,
			"target":34962
		},
		{
			"buffer":0,
			"byteLength":2168,
			"byteOffset":108152,
			"target":34962
		},
		{
			"buffer":0,
			"byteLength":2172,
			"byteOffset":110320,
			"target":34963
		},
		{
			"buffer":0,
			"byteLength":5868,
			"byteOffset":112492,
			"target":34962
		},
		{
			"buffer":0,
			"byteLength":5868,
			"byteOffset":118360,
			"target":34962
		},
		{
			"buffer":0,
			"byteLength":3912,
			"byteOffset":124228,
			"target":34962
		},
		{
			"buffer":0,
			"byteLength":3720,
			"byteOffset":128140,
			"target":34963
		}
	],
	"samplers":[
		{
			"magFilter":9729,
			"minFilter":9987
		}
	],
	"buffers":[
		{
			"byteLength":131860,
			"uri":"Aze.bin"
		}
	]
}
