<svg width="253" height="91" viewBox="0 0 253 91" fill="none" xmlns="http://www.w3.org/2000/svg">
<g clip-path="url(#clip0_830_9)">
<path fill-rule="evenodd" clip-rule="evenodd" d="M60.9019 0L40.5049 0L0.736816 90.3318H21.9112L50.579 20.5214L79.1224 90.3318L94.0159 90.3318L100.825 90.3318L165.157 90.3319L252.715 90.3319L252.715 73.556L165.157 73.556V73.5777L121.285 73.3041L165.646 19.0172L252.715 19.0172V0L170.101 0L157.629 0L95.0109 0V17.0277L142.956 17.0277L94.5536 76.1411L60.9019 0ZM252.715 53.5693L172.029 53.5693L185.274 36.7934L252.715 36.7934V53.5693Z" fill="url(#paint0_linear_830_9)"/>
</g>
<defs>
<linearGradient id="paint0_linear_830_9" x1="-8.59571" y1="36.1328" x2="251.624" y2="42.7729" gradientUnits="userSpaceOnUse">
<stop stop-color="#E9EAEC" stop-opacity="0"/>
<stop offset="0.56" stop-color="#E9EAEC"/>
<stop offset="1" stop-color="#E9EAEC" stop-opacity="0"/>
</linearGradient>
<clipPath id="clip0_830_9">
<rect width="251.978" height="90.3318" fill="white" transform="translate(0.736816)"/>
</clipPath>
</defs>
</svg>
