<svg width="180" height="452" viewBox="0 0 180 452" fill="none" xmlns="http://www.w3.org/2000/svg">
<path d="M179.993 451.153L-8.50586 401.605L-8.50587 339.669L179.993 290.121L179.993 326.744L138.523 336.976L138.523 404.297L179.993 414.53L179.993 451.153ZM105.671 395.95L105.671 345.324L13.8447 368.213L13.8447 373.06L105.671 395.95ZM179.993 278.329L134.753 278.329L27.5782 185.157L23.2697 185.157L23.2697 275.636L-8.50587 275.636L-8.50587 147.996L36.7339 147.996L143.909 241.168L148.218 241.168L148.218 147.457L179.993 147.457L179.993 278.329ZM179.993 123.175L-8.50587 123.175L-8.50588 1.99717L23.8082 1.99716L23.8082 87.6296L68.7787 87.6296L68.7787 9.53712L101.093 9.53712L101.093 87.6296L147.679 87.6296L147.679 0.381458L179.993 0.381457L179.993 123.175Z" fill="url(#paint0_linear_626_4708)"/>
<defs>
<linearGradient id="paint0_linear_626_4708" x1="59.5932" y1="473.222" x2="67.1898" y2="-7.17848" gradientUnits="userSpaceOnUse">
<stop stop-color="#E9EAEC" stop-opacity="0"/>
<stop offset="0.56" stop-color="#E9EAEC"/>
<stop offset="1" stop-color="#E9EAEC" stop-opacity="0"/>
</linearGradient>
</defs>
</svg>
