<svg width="178" height="494" viewBox="0 0 178 494" fill="none" xmlns="http://www.w3.org/2000/svg">
<g clip-path="url(#clip0_830_2)">
<path fill-rule="evenodd" clip-rule="evenodd" d="M0.167964 376.047L0.167965 416.035L177.262 494L177.262 452.488L40.3998 396.285L177.262 340.326L177.262 311.128L177.262 297.778L177.262 171.657L177.262 0.000114329L144.374 0.000115767L144.374 171.657L144.416 171.657L143.88 257.668L37.451 170.698L37.451 -9.31824e-05L0.167961 -9.15527e-05L0.167962 161.965L0.167969 309.177L33.5506 309.177L33.5506 215.18L149.442 310.073L0.167964 376.047ZM105.19 0.00011748L105.19 158.185L72.301 132.217L72.301 0.000118917L105.19 0.00011748Z" fill="url(#paint0_linear_830_2)"/>
</g>
<defs>
<linearGradient id="paint0_linear_830_2" x1="71.0058" y1="512.296" x2="84.0237" y2="2.1396" gradientUnits="userSpaceOnUse">
<stop stop-color="#E9EAEC" stop-opacity="0"/>
<stop offset="0.56" stop-color="#E9EAEC"/>
<stop offset="1" stop-color="#E9EAEC" stop-opacity="0"/>
</linearGradient>
<clipPath id="clip0_830_2">
<rect width="494" height="177.094" fill="white" transform="translate(0.167969 494) rotate(-90)"/>
</clipPath>
</defs>
</svg>
