<svg width="40" height="40" viewBox="0 0 40 40" fill="none" xmlns="http://www.w3.org/2000/svg">
<g clip-path="url(#clip0_638_8)">
<rect width="40" height="40" fill="url(#paint0_linear_638_8)"/>
<g clip-path="url(#clip1_638_8)">
<path d="M28.3171 12.3698C26.7874 11.6679 25.1471 11.1508 23.4319 10.8546C23.4007 10.8489 23.3695 10.8632 23.3534 10.8917C23.1424 11.2669 22.9088 11.7564 22.7451 12.1412C20.9005 11.865 19.0652 11.865 17.2584 12.1412C17.0947 11.7479 16.8525 11.2669 16.6406 10.8917C16.6245 10.8641 16.5933 10.8498 16.5621 10.8546C14.848 11.1498 13.2076 11.6669 11.677 12.3698C11.6637 12.3755 11.6523 12.385 11.6448 12.3974C8.53343 17.0457 7.68105 21.5799 8.09918 26.0577C8.10105 26.0796 8.11338 26.1006 8.13039 26.1139C10.1832 27.6215 12.1717 28.5367 14.1233 29.1433C14.1545 29.1529 14.1876 29.1415 14.2075 29.1157C14.6691 28.4853 15.0806 27.8206 15.4334 27.1215C15.4542 27.0806 15.4344 27.032 15.3918 27.0158C14.7391 26.7682 14.1176 26.4663 13.5197 26.1235C13.4724 26.0959 13.4686 26.0283 13.5121 25.9959C13.6379 25.9016 13.7638 25.8035 13.8839 25.7044C13.9057 25.6864 13.936 25.6826 13.9615 25.6939C17.8893 27.4872 22.1415 27.4872 26.0229 25.6939C26.0485 25.6816 26.0787 25.6854 26.1014 25.7035C26.2216 25.8025 26.3474 25.9016 26.4742 25.9958C26.5177 26.0282 26.5148 26.0959 26.4676 26.1235C25.8697 26.473 25.2482 26.7682 24.5945 27.0148C24.5519 27.031 24.533 27.0806 24.5539 27.1215C24.9143 27.8195 25.3258 28.4843 25.7789 29.1147C25.7978 29.1414 25.8319 29.1529 25.8631 29.1433C27.8241 28.5367 29.8126 27.6214 31.8654 26.1139C31.8834 26.1006 31.8948 26.0806 31.8966 26.0587C32.3971 20.8818 31.0585 16.3848 28.3482 12.3983C28.3416 12.385 28.3303 12.3755 28.3171 12.3698ZM16.0201 23.3312C14.8376 23.3312 13.8632 22.2455 13.8632 20.9122C13.8632 19.579 14.8186 18.4933 16.0201 18.4933C17.2309 18.4933 18.1959 19.5885 18.1769 20.9122C18.1769 22.2455 17.2214 23.3312 16.0201 23.3312ZM23.9948 23.3312C22.8123 23.3312 21.8379 22.2455 21.8379 20.9122C21.8379 19.579 22.7934 18.4933 23.9948 18.4933C25.2056 18.4933 26.1706 19.5885 26.1517 20.9122C26.1517 22.2455 25.2057 23.3312 23.9948 23.3312Z" fill="#0C0A10"/>
</g>
<path d="M40.5 12.5L28 0H40.5V12.5Z" fill="#0C0A10"/>
<path d="M1.09278e-06 27.5L12.5 40L0 40L1.09278e-06 27.5Z" fill="#0C0A10"/>
</g>
<defs>
<linearGradient id="paint0_linear_638_8" x1="-3.5" y1="-8.35918e-08" x2="44.6927" y2="33.1852" gradientUnits="userSpaceOnUse">
<stop stop-color="#E9EAEC"/>
<stop offset="1" stop-color="#E9EAEC" stop-opacity="0.4"/>
</linearGradient>
<clipPath id="clip0_638_8">
<rect width="40" height="40" fill="white"/>
</clipPath>
<clipPath id="clip1_638_8">
<rect width="24" height="24" fill="white" transform="translate(8 8)"/>
</clipPath>
</defs>
</svg>
