<svg width="40" height="40" viewBox="0 0 40 40" fill="none" xmlns="http://www.w3.org/2000/svg">
<g clip-path="url(#clip0_638_38)">
<rect width="40" height="40" fill="url(#paint0_linear_638_38)"/>
<path d="M16.3842 30.2632C17.1105 30.2632 17.3158 29.9789 17.3158 29.6158C17.3158 29.2526 17.3158 28.4632 17.3 27.3421C13.5263 28.1474 12.721 25.5421 12.721 25.5421C12.1052 24.0105 11.2052 23.5842 11.2052 23.5842C9.97366 22.7632 11.3 22.7789 11.3 22.7789C12.6579 22.8737 13.3842 24.1526 13.3842 24.1526C14.6 26.2053 16.5579 25.6053 17.3316 25.2579C17.3947 24.5789 17.6947 23.9316 18.2 23.4579C15.1842 23.1263 12.0105 21.9737 12.0105 16.8579C11.9947 15.5316 12.5 14.2368 13.4158 13.2737C13.2579 12.9421 12.8 11.5842 13.5263 9.73684C13.5263 9.73684 14.6631 9.37368 17.2684 11.1105C19.4947 10.5105 21.8316 10.5105 24.0579 11.1105C26.6316 9.38947 27.7842 9.73684 27.7842 9.73684C28.5105 11.5684 28.0526 12.9263 27.9263 13.2737C28.8421 14.2368 29.3316 15.5316 29.3158 16.8579C29.3158 21.9895 26.1421 23.1105 23.1105 23.4421C23.5842 23.8368 24.0263 24.6579 24.0263 25.9053C24.0263 27.7053 24.0105 29.1263 24.0105 29.5526C24.0105 29.9 24.1684 30.1842 24.9421 30.1842L16.3842 30.2632Z" fill="#0C0A10"/>
<path d="M40.5 12.5L28 0H40.5V12.5Z" fill="#0C0A10"/>
<path d="M1.09278e-06 27.5L12.5 40L0 40L1.09278e-06 27.5Z" fill="#0C0A10"/>
</g>
<defs>
<linearGradient id="paint0_linear_638_38" x1="-3.5" y1="-8.35918e-08" x2="44.6927" y2="33.1852" gradientUnits="userSpaceOnUse">
<stop stop-color="#E9EAEC"/>
<stop offset="1" stop-color="#E9EAEC" stop-opacity="0.4"/>
</linearGradient>
<clipPath id="clip0_638_38">
<rect width="40" height="40" fill="white"/>
</clipPath>
</defs>
</svg>
